<?xml version="1.0" encoding="UTF-8" standalone="no"?>
<svg
   width="24"
   height="28.23654"
   fill="currentColor"
   class="bi bi-paypal"
   viewBox="0 0 24 28.236539"
   version="1.1"
   id="svg4"
   sodipodi:docname="paypalholyfuck.svg"
   inkscape:version="1.2.2 (b0a8486, 2022-12-01)"
   xmlns:inkscape="http://www.inkscape.org/namespaces/inkscape"
   xmlns:sodipodi="http://sodipodi.sourceforge.net/DTD/sodipodi-0.dtd"
   xmlns="http://www.w3.org/2000/svg"
   xmlns:svg="http://www.w3.org/2000/svg">
  <defs
     id="defs8" />
  <sodipodi:namedview
     id="namedview6"
     pagecolor="#ffffff"
     bordercolor="#000000"
     borderopacity="0.25"
     inkscape:showpageshadow="2"
     inkscape:pageopacity="0.0"
     inkscape:pagecheckerboard="0"
     inkscape:deskcolor="#d1d1d1"
     showgrid="false"
     inkscape:zoom="3.732132"
     inkscape:cx="25.856535"
     inkscape:cy="-3.4832638"
     inkscape:window-width="1084"
     inkscape:window-height="1214"
     inkscape:window-x="1431"
     inkscape:window-y="45"
     inkscape:window-maximized="0"
     inkscape:current-layer="svg4" />
  <path
     d="M 21.496811,6.7321398 C 21.708574,4.845348 21.332697,3.5046867 20.258008,2.2820598 18.969795,0.81807868 16.64748,0.19090988 13.672234,0.19090988 H 5.0394341 A 1.2352739,1.233197 0 0 0 3.8200421,1.2303189 L 0.22363028,23.989852 a 0.74116442,0.73991824 0 0 0 0.732341,0.856191 H 5.8194213 l -0.3564647,2.254989 a 1.1082172,1.106354 0 0 0 1.0941003,1.279001 h 4.4928681 c 0.757046,0 1.399389,-0.546131 1.521151,-1.28781 l 0.04412,-0.229023 0.847044,-5.360883 0.05293,-0.28892 0.0017,-0.01234 a 0.61940165,0.61836025 0 0 1 0.614107,-0.523228 h 0.670577 c 2.234082,0 4.279343,-0.450998 5.902845,-1.603156 0.668812,-0.475662 1.25645,-1.062312 1.752324,-1.770519 A 8.7210338,8.7063713 0 0 0 24.009639,13.4372 C 24.436693,11.242114 24.23905,9.2866148 23.003776,7.8807708 A 4.7416873,4.7337152 0 0 0 21.662692,6.8413658 L 21.496811,6.7339018 Z M 8.2317349,15.729193 a 1.2264506,1.2243885 0 0 1 0.566461,-0.139175 h 2.5340771 c 4.976389,0 8.871031,-2.015397 10.009248,-7.8501802 l 0.0053,-0.02818 c 0.382933,0.218452 0.70587,0.475662 0.967042,0.77163 0.963513,1.097545 1.198216,2.7042252 0.794105,4.7742342 -0.479992,2.461107 -1.52821,4.064265 -2.934657,5.063154 -1.415271,1.004175 -3.250537,1.435794 -5.369913,1.435794 H 14.1328 a 1.540563,1.5379729 0 0 0 -1.522916,1.293095 l -0.05294,0.28892 -0.847045,5.360884 -0.04235,0.229022 -0.0017,0.0071 a 0.62116633,0.62012196 0 0 1 -0.614102,0.521482 H 6.5588929 A 0.18705577,0.18674127 0 0 1 6.3736019,27.2403 l 0.367053,-2.325457 z"
     id="path2"
     style="display:inline;stroke-width:1.76319" />
</svg>
