<?xml version="1.0" encoding="UTF-8" standalone="no"?>
<svg
   width="20"
   height="28.23654"
   fill="currentColor"
   class="bi bi-paypal"
   viewBox="0 0 20 28.236539"
   version="1.1"
   id="svg4"
   sodipodi:docname="paypal-logo.svg"
   inkscape:version="1.2.2 (b0a8486, 2022-12-01)"
   xmlns:inkscape="http://www.inkscape.org/namespaces/inkscape"
   xmlns:sodipodi="http://sodipodi.sourceforge.net/DTD/sodipodi-0.dtd"
   xmlns="http://www.w3.org/2000/svg"
   xmlns:svg="http://www.w3.org/2000/svg">
  <defs
     id="defs8" />
  <sodipodi:namedview
     id="namedview6"
     pagecolor="#ffffff"
     bordercolor="#000000"
     borderopacity="0.25"
     inkscape:showpageshadow="2"
     inkscape:pageopacity="0.0"
     inkscape:pagecheckerboard="0"
     inkscape:deskcolor="#d1d1d1"
     showgrid="false"
     inkscape:zoom="21.112127"
     inkscape:cx="9.4969115"
     inkscape:cy="10.183721"
     inkscape:window-width="1084"
     inkscape:window-height="1214"
     inkscape:window-x="1431"
     inkscape:window-y="25"
     inkscape:window-maximized="0"
     inkscape:current-layer="svg4" />
  <path
     d="M 17.74259,7.9910182 C 17.919059,6.4186891 17.605828,5.3014695 16.710252,4.2826122 15.636739,3.0626259 13.701474,2.5399844 11.222099,2.5399844 H 4.028087 A 1.0293966,1.0276658 0 0 0 3.0119254,3.40616 L 0.01491074,22.372469 a 0.61763802,0.61659954 0 0 0 0.6102852,0.713493 H 4.6780774 l -0.2970544,1.87916 a 0.92351583,0.92196316 0 0 0 0.9117519,1.065836 h 3.7440626 c 0.630873,0 1.1661585,-0.455109 1.2676275,-1.073177 l 0.03677,-0.190852 0.705871,-4.467409 0.04411,-0.240768 0.0014,-0.01028 a 0.51616888,0.51530105 0 0 1 0.511757,-0.436023 h 0.558814 c 1.861738,0 3.566125,-0.375833 4.919046,-1.335966 0.557345,-0.396386 1.047044,-0.885261 1.460273,-1.475434 a 7.2675399,7.2553212 0 0 0 1.294099,-3.222467 C 20.192483,11.74934 20.027781,10.119755 18.998383,8.9482162 A 3.9514125,3.9447691 0 0 0 17.880824,8.08204 L 17.74259,7.9924865 Z M 6.6883421,15.488575 a 1.0220438,1.0203254 0 0 1 0.4720516,-0.115979 h 2.1117348 c 4.1469965,0 7.3925365,-1.679501 8.3410535,-6.5418282 l 0.0044,-0.023483 c 0.319111,0.1820436 0.588226,0.3963857 0.805869,0.643026 0.80293,0.9146222 0.998516,2.2535242 0.661755,3.9785342 -0.399993,2.050927 -1.273509,3.386894 -2.445551,4.219302 -1.179394,0.836815 -2.708785,1.196498 -4.474935,1.196498 h -0.558816 a 1.2838046,1.2816462 0 0 0 -1.269099,1.07758 l -0.04412,0.240768 -0.7058705,4.46741 -0.03529,0.190852 -0.0014,0.0059 a 0.51763945,0.51676914 0 0 1 -0.511753,0.43457 H 5.2943049 A 0.15588006,0.15561797 0 0 1 5.1398955,25.081179 l 0.305878,-1.937884 z"
     id="path2"
     style="display:inline;stroke-width:1.46933" />
</svg>
